P2
90 40
255
 125 127 127 127 129 131 131 131 123 127 129 127 125 125 129 133 129 123 123
 127 129 125 121 121 119 121 121 119 123 129 129 125 121 121 121 123 125 127
 125 125 133 127 127 127 123 119 119 123 117 119 121 123 125 127 127 125 117
 119 123 129 129 129 125 123 123 125 127 129 131 131 129 129 133 131 129 129
 129 131 127 125 125 119 117 117 121 123 123 119 125 125 125 127 127 127 129
 131 133 135 127 131 133 133 129 127 127 131 123 121 123 127 127 125 127 131
 127 129 127 123 121 123 123 119 125 125 127 129 129 129 127 127 129 127 125
 127 123 119 121 125 121 121 125 127 127 127 125 125 127 127 125 123 123 125
 125 125 127 125 127 127 129 131 131 133 131 129 129 129 131 131 127 125 125
 123 121 121 123 123 123 121 123 123 129 127 127 127 127 129 131 133 129 133
 137 137 133 131 131 133 129 129 129 127 123 121 123 129 123 127 129 127 125
 127 125 123 127 129 129 131 133 133 133 131 127 127 129 127 125 119 121 127
 121 121 123 127 127 127 125 125 125 125 127 129 131 129 125 121 125 125 127
 129 129 131 131 131 131 131 129 129 127 127 125 123 127 125 125 123 125 123
 123 125 129 129 129 129 127 127 127 125 127 127 129 131 133 135 133 133 135
 137 133 133 131 129 125 123 125 129 123 127 131 131 127 127 127 127 123 125
 129 131 133 133 133 133 125 131 133 131 125 123 125 129 121 123 127 127 129
 129 129 131 133 133 135 135 137 135 133 129 127 131 133 137 135 135 133 131
 135 135 135 133 133 131 129 129 127 127 127 125 125 123 123 125 131 131 129
 129 129 127 129 129 129 129 131 131 131 129 131 131 135 137 129 129 127 129
 133 135 133 131 133 133 133 133 129 125 123 123 125 127 131 131 131 129 129
 131 129 133 135 135 129 125 125 127 127 129 131 133 131 131 131 133 133 131
 127 125 127 129 131 133 125 127 127 127 127 129 127 127 131 129 129 129 129
 125 125 125 127 127 127 125 123 123 123 125 127 129 127 127 129 131 131 133
 133 133 137 133 131 127 127 129 131 133 131 131 129 131 137 137 135 129 133
 131 129 131 133 129 127 127 131 133 135 133 129 127 127 129 131 135 137 135
 131 131 129 125 131 133 133 131 127 127 129 131 123 127 131 139 141 139 135
 133 145 141 133 131 131 135 139 145 137 137 137 135 131 129 127 127 125 127
 125 125 125 125 123 125 121 123 125 127 129 131 131 133 131 129 135 133 129
 127 127 127 127 127 133 135 135 133 133 135 135 131 131 125 123 129 133 133
 133 133 131 133 133 131 127 127 129 133 129 131 133 133 133 135 129 123 129
 133 135 133 129 127 131 135 135 135 141 141 137 127 113 105 91 87 83 79
 79 83 87 89 109 113 119 123 125 129 133 137 129 125 123 123 125 127 125
 125 121 123 127 129 131 131 129 127 123 121 131 129 129 129 129 129 129 127
 127 133 135 131 131 137 143 143 137 129 123 129 135 133 129 127 125 127 129
 129 125 127 131 137 127 129 129 131 135 135 131 121 131 135 137 139 137 137
 141 147 141 129 109 91 71 57 45 41 43 43 43 45 43 43 43 41 25
 35 51 67 83 99 113 123 129 125 123 123 127 129 127 125 129 129 129 129
 131 131 133 133 129 129 131 129 133 139 139 131 133 141 135 133 135 137 137
 139 137 137 131 133 133 127 125 127 129 129 127 131 135 135 135 137 137 137
 133 135 131 129 135 141 135 123 123 141 141 139 147 149 133 117 79 47 41
 49 45 45 57 59 57 55 57 57 57 57 55 55 43 45 41 31 27 31
 47 61 75 107 131 137 131 123 121 131 129 123 131 131 133 131 133 133 131
 131 135 131 131 135 135 129 133 143 137 137 139 139 139 139 137 137 135 135
 133 129 127 131 129 127 131 135 135 133 133 135 137 135 131 131 133 137 139
 135 133 133 141 143 145 145 131 89 55 47 69 57 63 69 57 51 55 51
 47 49 51 51 51 51 51 53 49 49 51 47 41 39 37 37 39 45 61
 99 137 141 125 115 127 141 131 133 135 135 131 131 131 133 137 133 131 133
 131 129 135 145 139 143 145 143 139 137 139 141 139 141 137 133 131 133 133
 131 137 139 137 133 131 135 139 139 133 129 135 141 141 133 133 141 129 143
 137 107 75 53 43 49 61 67 81 79 63 55 53 49 45 47 47 47 43
 45 47 49 41 41 45 51 55 53 45 39 21 39 31 19 53 107 137 135
 123 131 133 135 137 135 131 131 133 137 137 135 133 135 133 133 139 147 139
 143 147 145 141 139 141 145 141 143 143 139 135 139 141 141 143 143 141 137
 135 139 143 145 135 135 137 139 139 137 137 141 137 135 101 57 43 49 61
 67 69 83 91 79 63 59 61 55 55 53 49 49 47 45 43 43 33 29
 33 39 47 53 55 51 45 41 37 29 21 25 65 121 139 117 135 137 139
 137 133 133 135 139 135 135 135 137 137 137 141 147 139 143 145 145 141 139
 143 147 137 143 147 141 137 139 143 147 141 145 143 137 137 141 145 147 137
 141 139 135 141 149 145 133 123 87 49 49 67 71 65 69 83 97 93 77
 67 69 69 65 65 59 53 53 53 53 47 41 39 35 31 29 33 37 43
 45 61 55 47 45 29 9 9 39 91 139 133 137 139 139 137 137 139 141
 133 135 139 139 139 139 143 147 139 141 143 143 141 141 143 145 133 141 145
 139 137 138 144 148 141 143 143 139 137 141 145 145 139 145 141 135 141 151
 139 115 69 61 51 61 81 83 77 77 87 99 91 75 73 75 69 65 67
 62 56 56 59 57 51 47 47 43 37 33 27 25 25 27 39 57 51 31
 31 41 25 5 15 85 135 137 139 139 139 141 141 139 137 141 141 140 138
 140 142 146 138 138 141 141 139 139 139 137 139 141 141 139 139 142 146 146
 139 145 145 141 139 143 143 143 143 145 143 139 141 133 111 83 61 81 85
 73 73 75 77 79 95 103 91 75 79 77 69 71 67 66 66 64 61 57
 53 51 45 45 41 37 33 29 25 23 19 21 31 49 57 39 23 25 9
 3 135 135 137 141 141 142 140 139 143 145 145 140 138 141 145 147 141 139
 137 137 139 137 135 133 145 145 141 139 145 150 148 142 143 147 147 145 143
 145 143 141 147 145 143 143 137 113 81 55 81 75 73 81 89 79 75 89
 107 113 99 81 85 83 77 85 71 74 76 72 63 55 53 53 49 45 43
 41 41 35 29 27 27 25 21 25 35 29 25 33 25 17 141 151 141 135
 145 144 136 143 145 147 147 146 144 145 147 147 143 141 141 145 147 143 137
 137 145 141 139 143 149 148 140 134 149 149 147 145 141 141 141 143 147 151
 137 143 115 63 61 77 79 77 81 85 87 85 85 91 107 103 97 91 85
 79 75 73 77 70 62 58 59 57 53 49 51 47 43 43 39 37 37 33
 33 29 25 21 23 25 27 27 27 29 143 153 149 141 145 145 141 149 145
 145 147 146 144 145 147 149 147 145 145 146 148 145 140 140 140 140 143 147
 149 148 144 142 142 144 144 144 145 145 145 145 145 148 148 132 78 56 79
 65 83 82 82 88 88 86 86 93 105 96 86 78 76 76 75 73 77 70
 68 66 64 62 58 56 53 51 47 42 38 34 31 29 33 26 24 21 21
 25 27 28 26 18 141 151 149 141 141 140 140 145 143 145 145 146 146 147
 149 149 151 147 147 148 148 144 142 145 134 142 148 151 149 144 148 150 140
 145 144 146 146 147 147 147 148 158 137 91 51 60 86 71 83 78 76 78
 84 93 105 117 122 114 103 95 89 86 82 79 75 70 64 58 56 55 57
 56 52 51 47 42 38 34 31 27 35 30 24 23 23 25 24 24 33 29
 141 147 147 141 139 138 140 143 143 145 147 146 146 148 150 150 150 149 147
 148 148 144 145 147 135 140 146 149 147 146 148 152 147 149 151 150 148 147
 147 146 150 163 107 53 61 70 66 73 81 82 90 100 113 125 139 147 153
 149 145 137 129 120 114 111 103 96 86 72 61 55 53 52 48 49 45 42
 40 38 33 31 39 34 28 23 21 22 22 21 33 35 145 145 145 145 143
 144 144 139 143 145 147 148 148 149 151 153 151 147 147 146 144 142 143 147
 139 140 142 147 147 146 146 146 149 151 153 152 150 149 149 148 152 137 83
 51 73 72 64 88 107 118 136 152 161 167 165 163 163 167 169 165 157 150
 148 149 143 136 126 112 95 79 65 58 52 48 47 44 42 40 37 35 35
 32 28 23 23 22 24 25 21 21 145 141 145 143 141 144 146 137 145 147
 149 150 150 151 153 155 149 147 147 146 144 142 143 147 143 140 142 145 149
 148 146 144 151 151 153 152 150 151 151 150 152 91 65 63 67 89 112 138
 151 158 164 170 173 175 173 169 167 166 164 160 154 150 152 155 141 140 140
 134 123 103 85 72 62 58 55 48 44 42 37 35 31 28 26 23 25 24
 26 26 16 20 141 139 145 147 139 144 148 139 147 149 151 152 152 153 155
 157 149 149 149 148 146 142 143 147 145 144 144 147 151 150 150 150 153 153
 153 150 150 149 149 150 128 61 53 69 85 120 146 160 163 166 168 164 167
 171 175 177 178 174 168 163 159 154 152 149 135 134 134 134 127 113 95 82
 72 66 61 52 46 42 39 37 33 30 26 25 25 24 26 27 23 27 143
 143 153 155 141 146 154 145 149 149 151 152 152 153 155 155 149 149 151 150
 148 144 145 149 145 146 148 151 153 154 154 156 157 155 153 148 146 145 145
 144 88 53 51 73 123 148 128 129 145 156 168 174 181 185 185 183 188 184
 181 181 185 180 168 159 161 152 144 134 127 117 103 92 76 71 63 54 48
 44 43 39 37 32 28 27 25 24 22 21 33 19 147 155 153 141 139 146
 152 149 147 155 157 152 152 153 153 149 155 147 147 148 146 142 143 149 153
 156 154 151 153 156 156 154 149 159 153 148 162 143 145 120 56 56 71 101
 120 128 140 159 179 186 188 186 193 197 193 183 184 192 195 187 180 180 178
 173 169 164 164 158 142 129 117 104 92 87 79 67 56 48 43 41 38 32
 26 23 23 25 22 20 25 25 147 151 149 145 147 154 156 153 147 153 157
 154 152 152 152 150 150 146 145 148 150 146 149 155 151 152 152 151 149 152
 156 154 163 157 161 158 140 141 145 85 65 54 62 102 142 160 165 169 183
 188 192 188 193 199 197 189 189 194 196 188 184 184 180 175 173 166 164 160
 144 134 126 112 99 95 83 71 60 52 44 42 36 32 30 25 23 21 21
 22 22 22 155 153 151 151 155 156 152 151 147 153 157 157 155 153 155 153
 153 147 147 155 155 151 153 159 147 151 151 149 149 153 157 157 157 157 155
 159 141 147 121 51 53 63 91 127 153 163 175 187 187 193 193 189 189 195
 197 197 193 197 197 191 189 189 185 177 177 169 163 161 151 143 135 123 107
 101 89 77 67 57 49 45 39 37 33 27 21 17 19 19 21 21 159 155
 151 155 155 152 150 151 147 153 157 157 155 153 155 157 157 153 151 159 159
 153 153 157 147 149 153 151 149 151 155 161 147 161 141 153 157 137 73 37
 31 69 119 149 153 153 171 193 187 191 193 189 189 191 197 197 195 195 195
 191 191 193 187 181 181 169 165 165 155 151 141 127 111 105 93 81 71 63
 53 49 45 41 35 29 25 19 19 19 23 19 153 151 151 153 153 151 157
 163 149 153 157 159 155 153 157 161 157 153 155 161 161 157 155 159 149 151
 151 153 153 155 157 163 157 159 145 159 145 97 29 33 35 73 115 145 157
 165 177 187 185 191 193 191 191 191 195 195 193 193 193 191 193 193 189 183
 181 173 169 169 161 155 143 129 111 105 93 85 77 67 59 53 47 41 33
 31 33 31 25 21 21 19 155 157 157 155 151 153 157 161 151 155 159 161
 157 151 155 161 155 151 155 161 163 159 157 163 155 151 151 155 157 157 159
 163 165 147 159 163 109 57 27 41 57 87 121 139 151 167 179 185 189 191
 193 193 193 193 193 193 189 191 191 191 191 191 187 185 183 175 173 173 163
 155 145 131 113 107 97 87 81 73 63 57 47 41 33 33 37 41 33 29
 19 17 161 165 165 157 157 159 161 155 155 155 161 163 157 151 155 163 153
 149 155 163 163 159 155 161 157 151 149 155 159 159 159 161 159 147 161 139
 97 57 37 43 61 99 137 145 147 159 177 185 191 189 189 191 191 191 189
 189 189 191 193 193 191 187 185 185 181 173 171 169 157 149 143 131 119 111
 101 93 87 79 69 61 49 43 37 37 39 39 33 29 21 21 157 165 165
 159 163 173 169 159 157 157 161 163 157 151 155 163 157 153 157 163 163 155
 153 157 159 151 147 153 159 159 159 159 151 165 157 109 115 79 31 33 51
 93 133 145 151 167 179 179 191 187 183 185 187 187 185 185 191 193 195 195
 189 185 183 185 175 169 167 161 149 141 139 131 125 117 105 97 91 83 71
 65 53 49 45 41 37 33 29 25 29 29 165 167 165 157 159 169 169 165
 159 159 159 157 153 151 153 155 149 155 159 159 161 153 155 165 155 145 157
 143 161 161 155 165 161 169 113 117 115 73 33 35 57 91 125 147 157 159
 169 187 183 173 185 191 175 177 187 173 185 187 187 185 183 181 181 183 173
 165 161 153 145 143 141 131 129 119 109 105 97 85 75 69 59 55 45 37
 31 29 25 23 23 23 161 165 163 161 163 171 173 167 159 159 161 157 153
 151 153 153 155 159 159 161 165 157 155 161 153 147 161 149 163 163 157 163
 173 129 107 113 97 51 17 49 67 99 129 149 161 165 173 191 177 167 179
 187 173 177 187 175 181 183 185 183 179 177 175 177 167 161 157 151 145 147
 145 137 129 123 117 113 103 91 85 83 73 67 55 39 31 25 23 21 19
 21 169 171 169 167 169 173 171 161 161 163 163 159 155 151 151 153 159 161
 161 163 167 159 153 157 151 149 165 155 167 165 165 165 153 109 117 77 55
 55 29 45 77 103 129 147 161 167 175 189 175 169 179 185 175 179 187 177
 177 179 181 181 179 177 175 175 165 159 157 151 145 147 149 141 131 129 125
 119 111 103 99 99 89 77 63 45 31 25 23 25 21 23 169 167 163 163
 169 175 169 161 161 163 163 161 155 153 151 151 157 161 161 163 167 159 153
 157 153 151 167 159 167 167 173 165 119 111 117 45 39 61 45 35 91 113
 133 145 157 165 169 179 177 173 181 185 179 181 185 181 175 177 181 183 183
 181 179 177 171 165 159 155 147 149 151 141 137 135 133 127 121 115 109 109
 95 85 65 47 31 25 27 33 31 29 155 149 143 147 161 173 173 167 163
 165 165 163 159 153 153 153 151 159 163 165 165 155 153 161 161 159 169 161
 167 165 177 157 113 113 85 43 61 47 37 41 105 125 139 147 159 165 165
 173 177 177 183 185 181 183 185 183 179 179 181 183 183 181 177 177 175 169
 165 159 151 153 155 145 147 145 139 135 131 127 119 113 101 85 65 47 33
 25 29 35 33 29 151 145 141 143 155 167 171 169 165 167 165 163 161 157
 157 159 151 159 163 165 165 157 157 167 169 169 173 167 167 165 173 141 115
 115 57 49 73 35 29 39 109 129 143 147 157 163 165 169 171 173 177 181
 183 183 185 187 185 183 183 181 181 177 173 169 173 167 167 163 157 161 161
 151 153 149 145 141 141 137 127 115 107 89 65 49 37 27 25 31 25 21
 149 147 147 145 149 153 161 169 165 167 167 165 161 159 161 165 157 163 165
 167 171 165 163 171 171 171 173 169 169 165 173 125 115 103 45 51 57 35
 33 35 105 129 145 151 159 165 169 171 167 175 177 179 183 183 181 185 187
 183 181 181 179 177 173 171 171 167 167 167 161 165 165 155 149 151 149 145
 141 137 127 117 109 87 65 53 41 29 25 27 19 21 133 137 143 143 139
 141 155 167 165 167 167 165 163 161 163 167 165 167 167 169 175 171 167 173
 167 165 171 171 173 167 175 119 121 81 33 59 49 31 33 43 105 131 149
 157 167 175 177 181 170 176 178 179 183 181 177 183 185 181 179 179 181 181
 179 177 173 169 169 169 163 165 165 155 141 147 149 145 137 131 125 117 105
 85 63 53 45 35 27 27 21 25